<?xml version="1.0" standalone="no"?>
<!DOCTYPE svg PUBLIC "-//W3C//DTD SVG 20010904//EN"
 "http://www.w3.org/TR/2001/REC-SVG-20010904/DTD/svg10.dtd">
<svg version="1.0" xmlns="http://www.w3.org/2000/svg"
 width="500.000000pt" height="500.000000pt" viewBox="0 0 500.000000 500.000000"
 preserveAspectRatio="xMidYMid meet">
<metadata>
Created by potrace 1.14, written by Peter Selinger 2001-2017
</metadata>
<g transform="translate(0.000000,500.000000) scale(0.100000,-0.100000)"
fill="#000000" stroke="none">
<path d="M2309 4696 c-2 -2 -42 -9 -89 -15 -162 -20 -240 -38 -420 -98 -117
-38 -137 -47 -265 -109 -128 -62 -332 -185 -355 -214 -3 -3 -20 -17 -39 -30
-86 -60 -311 -285 -371 -370 -13 -19 -27 -37 -30 -40 -12 -9 -107 -154 -144
-220 -62 -110 -156 -310 -156 -333 0 -7 -4 -17 -9 -22 -4 -6 -14 -32 -21 -60
-7 -27 -16 -54 -20 -60 -4 -5 -10 -23 -13 -40 -4 -16 -17 -86 -31 -155 -41
-208 -45 -247 -41 -455 4 -231 8 -270 42 -420 13 -60 26 -121 29 -135 3 -14 9
-34 14 -45 4 -11 23 -63 40 -115 34 -99 103 -249 166 -360 38 -66 132 -211
144 -220 3 -3 17 -21 30 -40 29 -41 89 -107 186 -204 335 -337 790 -557 1284
-621 25 -4 122 -9 215 -12 161 -5 297 4 415 28 25 5 56 11 70 13 40 6 163 36
185 45 11 5 38 14 60 20 22 7 49 16 60 21 11 4 52 20 90 35 113 43 402 202
413 227 2 5 8 8 13 8 10 0 22 9 57 40 10 8 30 23 45 33 70 45 275 250 357 357
19 25 38 47 41 50 4 3 38 54 77 113 119 184 235 438 284 627 35 135 33 125 67
345 15 99 13 350 -4 487 -9 71 -17 134 -20 140 -2 7 -7 29 -10 48 -3 19 -10
53 -16 75 -6 22 -13 51 -15 65 -3 14 -9 34 -14 45 -5 11 -20 56 -35 100 -33
98 -42 121 -113 264 -49 99 -181 316 -201 331 -4 3 -18 21 -31 40 -59 83 -250
275 -360 360 -24 19 -50 40 -58 47 -7 7 -26 20 -42 30 -17 9 -30 21 -30 25 0
4 -4 8 -8 8 -5 0 -47 23 -93 51 -106 64 -285 150 -369 179 -36 12 -74 25 -85
30 -53 24 -276 78 -355 86 -25 3 -58 8 -75 11 -36 6 -440 15 -446 9z m230
-732 c67 -14 181 -155 181 -226 0 -18 5 -49 11 -68 20 -68 13 -188 -15 -272
-14 -42 -26 -92 -26 -111 0 -37 -7 -32 130 -95 102 -46 115 -59 106 -107 -9
-45 -20 -51 -55 -26 -16 12 -34 21 -40 21 -6 0 -11 3 -11 8 0 7 -48 32 -63 32
-5 0 -23 6 -40 13 -73 32 -113 39 -220 38 -87 0 -126 -4 -177 -21 -66 -22
-171 -69 -180 -81 -3 -3 -16 -12 -29 -19 -19 -10 -25 -10 -32 1 -14 22 -22 58
-16 73 6 16 139 86 163 86 7 0 14 4 14 9 0 5 9 11 20 14 15 4 20 14 21 39 2
61 -3 92 -21 133 -36 82 -38 94 -36 156 8 170 18 222 55 279 79 120 137 148
260 124z m-1044 -568 c110 -11 225 -47 263 -83 7 -7 17 -13 21 -13 31 0 161
-181 161 -224 0 -11 9 -16 26 -16 24 0 64 -32 64 -51 0 -5 -28 -37 -63 -71
-57 -56 -157 -186 -157 -203 0 -4 -8 -19 -19 -33 -24 -35 -76 -181 -90 -252
-8 -44 -18 -130 -21 -182 0 -5 -16 -8 -35 -8 -39 0 -39 -1 -36 100 1 62 6 87
33 198 15 63 91 231 120 267 5 5 20 28 34 50 l26 39 -28 23 c-36 29 -136 78
-189 91 -45 12 -180 21 -435 27 -105 2 -201 10 -240 19 -163 38 -275 76 -260
89 28 24 140 90 195 117 161 76 219 93 385 113 104 13 140 14 245 3z m2245 0
c122 -13 230 -44 348 -97 34 -16 67 -29 72 -29 6 0 10 -4 10 -9 0 -5 8 -11 18
-14 24 -8 69 -36 121 -75 l24 -18 -79 -27 c-114 -39 -134 -44 -187 -52 -27 -3
-58 -8 -69 -10 -11 -3 -118 -5 -237 -6 -198 -1 -264 -7 -386 -35 -33 -8 -171
-79 -190 -98 -10 -10 -9 -17 6 -37 10 -13 19 -29 19 -36 0 -6 4 -13 9 -15 14
-5 106 -188 120 -238 7 -25 16 -58 21 -75 16 -55 32 -179 28 -220 -3 -38 -5
-40 -40 -43 l-38 -3 0 53 c0 85 -35 237 -76 326 -13 29 -24 56 -24 60 -1 17
-135 193 -191 248 l-61 62 23 26 c12 14 33 26 46 26 18 0 25 7 30 30 3 17 9
30 12 30 4 0 13 16 20 36 22 60 126 156 201 186 85 34 132 46 204 53 33 3 60
6 62 8 5 4 120 0 184 -7z m-1107 -297 c69 -20 229 -98 255 -123 10 -10 11 -19
4 -32 -6 -11 -29 -57 -51 -104 -49 -100 -120 -198 -158 -219 -36 -19 -310 -21
-364 -3 -36 13 -76 69 -155 222 -16 30 -31 57 -34 60 -11 11 -30 51 -30 63 0
14 78 63 150 95 145 65 262 77 383 41z m-568 -199 c3 -11 12 -26 18 -33 7 -7
22 -33 35 -57 13 -25 42 -78 64 -119 48 -87 51 -129 17 -192 -13 -24 -26 -46
-29 -49 -3 -3 -12 -18 -20 -35 -8 -16 -31 -59 -52 -94 -21 -34 -38 -65 -38
-68 0 -8 -24 -29 -47 -41 -13 -7 -71 -12 -146 -12 -121 0 -125 1 -130 23 -9
38 5 175 28 262 20 78 83 225 98 225 4 0 7 5 7 11 0 12 54 84 113 151 45 51
72 60 82 28z m941 -23 c87 -96 93 -105 161 -227 22 -38 54 -127 72 -200 7 -25
13 -90 14 -145 l2 -100 -95 -3 c-120 -4 -189 10 -215 44 -10 14 -27 35 -37 46
-10 12 -18 25 -18 29 0 4 -6 14 -13 21 -11 12 -55 98 -91 180 -27 61 -21 84
54 213 13 22 33 58 44 80 12 22 23 42 26 45 3 3 11 17 19 33 8 15 20 27 26 27
7 0 30 -19 51 -43z m-349 -326 c38 -1 45 -5 71 -43 16 -24 49 -81 73 -128 24
-47 46 -87 50 -90 3 -3 12 -21 21 -40 33 -72 33 -83 -14 -172 -23 -46 -45 -85
-49 -88 -3 -3 -11 -20 -18 -37 -8 -18 -18 -33 -23 -33 -6 0 -8 -6 -5 -13 3 -7
-4 -19 -15 -26 -11 -7 -17 -19 -14 -27 3 -8 -1 -14 -10 -14 -8 0 -13 -4 -9 -9
5 -9 -32 -27 -47 -23 -5 1 -8 -3 -8 -9 0 -8 -5 -8 -15 1 -8 7 -15 8 -15 3 0
-10 -11 -11 -140 -12 -93 -1 -108 0 -129 13 -9 6 -12 5 -7 -2 4 -7 -5 -6 -26
1 -18 7 -37 18 -41 25 -5 7 -13 9 -19 6 -7 -4 -8 -2 -4 5 5 7 -3 22 -19 37
-15 14 -25 28 -21 31 3 3 -5 16 -17 27 -13 12 -21 28 -19 35 3 8 0 11 -7 7 -7
-5 -11 1 -11 13 0 12 -5 21 -11 21 -5 0 -7 5 -4 10 3 6 1 10 -6 10 -7 0 -10 3
-7 6 4 3 -5 30 -18 60 -13 30 -24 68 -24 85 0 56 113 269 182 343 23 25 74 32
218 29 63 -1 134 -2 157 -2z m-979 -353 c7 -7 12 -26 12 -42 0 -17 7 -52 15
-78 10 -36 11 -48 2 -49 -9 0 -9 -2 1 -6 6 -2 10 -9 6 -14 -3 -5 0 -9 7 -9 7
0 10 -11 7 -29 -2 -17 -1 -28 4 -25 7 5 12 -10 9 -28 0 -5 4 -8 10 -8 5 0 7
-4 4 -10 -3 -5 2 -21 11 -35 9 -14 12 -25 8 -25 -5 0 -3 -4 4 -9 7 -4 15 -17
16 -27 2 -10 8 -18 14 -17 5 1 8 -7 5 -17 -3 -11 0 -20 6 -20 6 0 11 -7 11
-15 0 -9 7 -18 15 -21 8 -4 13 -9 10 -13 -2 -4 4 -19 13 -32 9 -13 24 -37 34
-54 9 -16 21 -29 28 -27 6 1 9 -1 6 -6 -3 -5 4 -18 14 -30 11 -12 20 -26 20
-31 0 -5 9 -13 20 -16 11 -3 20 -11 20 -17 0 -12 39 -48 52 -48 4 0 7 -3 7 -7
-3 -19 2 -34 9 -29 5 3 14 -4 22 -14 8 -10 17 -17 22 -14 4 3 8 0 8 -6 0 -17
26 -40 45 -40 9 0 14 -4 10 -10 -3 -5 7 -16 23 -24 16 -8 32 -23 36 -32 4 -9
9 -14 13 -11 3 4 14 -5 25 -18 11 -14 25 -25 33 -25 7 0 16 -7 19 -16 3 -8 10
-12 16 -9 5 3 10 1 10 -4 0 -6 7 -11 16 -11 8 0 13 -4 10 -9 -7 -10 22 -24 34
-16 4 3 10 -5 13 -16 3 -12 10 -18 16 -15 5 4 12 2 15 -2 7 -12 66 -13 66 -1
0 5 6 9 14 9 7 0 25 12 40 26 14 15 26 21 26 15 0 -7 5 -9 10 -6 6 4 8 11 5
16 -5 8 1 11 21 8 3 0 14 9 24 21 10 12 21 21 24 21 7 -1 25 14 85 70 22 22
41 34 41 27 0 -6 6 -3 14 7 8 11 12 24 9 29 -4 5 -2 6 4 3 10 -7 83 59 117
105 11 15 23 25 28 22 4 -3 8 0 8 6 0 11 10 25 48 65 13 14 19 25 15 25 -4 0
0 5 10 11 9 6 15 14 12 20 -4 5 1 9 10 9 9 0 14 4 11 9 -3 4 3 19 14 31 11 13
20 29 20 37 0 7 5 13 11 13 5 0 7 5 4 10 -3 6 -2 10 2 10 11 0 53 84 53 104 0
8 5 16 11 18 5 2 11 10 13 18 2 8 6 24 10 35 21 55 26 72 29 92 2 12 6 26 10
29 4 4 7 18 7 31 0 13 6 53 12 89 l13 65 35 -6 c19 -4 36 -8 37 -9 8 -8 -37
-227 -50 -244 -5 -7 -7 -15 -3 -19 3 -3 -2 -15 -11 -26 -13 -15 -14 -18 -3
-12 13 8 13 7 1 -8 -7 -9 -10 -17 -5 -17 5 0 1 -5 -9 -11 -9 -6 -15 -14 -12
-20 4 -5 1 -9 -5 -9 -6 0 -8 -5 -5 -10 3 -6 -1 -13 -10 -16 -12 -5 -13 -10 -4
-20 9 -11 8 -15 -5 -20 -9 -3 -16 -12 -16 -20 0 -8 -4 -14 -10 -14 -5 0 -9 -3
-8 -7 4 -17 -14 -53 -24 -47 -6 4 -8 2 -4 -4 3 -6 -3 -27 -14 -47 -11 -20 -18
-40 -15 -46 4 -5 0 -9 -7 -9 -8 -1 -5 -7 7 -16 65 -49 79 -60 91 -71 7 -7 17
-13 23 -13 6 0 11 -5 11 -10 0 -6 11 -20 25 -32 14 -12 25 -28 25 -35 0 -7 4
-13 8 -13 11 0 32 -46 32 -70 0 -11 5 -20 10 -20 6 0 8 -10 6 -22 -9 -51 -25
-76 -53 -84 -41 -11 -63 -12 -63 -2 0 4 -11 1 -25 -8 -13 -8 -28 -13 -34 -10
-5 3 -11 2 -13 -3 -1 -6 -15 -12 -30 -15 -15 -2 -32 -7 -38 -11 -5 -3 -10 -1
-10 5 0 7 -7 10 -15 6 -8 -3 -15 -1 -15 5 0 6 -4 7 -10 4 -5 -3 -10 -1 -10 6
0 7 -3 9 -6 6 -4 -4 -15 3 -25 15 -11 11 -19 18 -19 14 0 -4 -6 -1 -14 6 -8 7
-12 16 -10 20 2 4 -4 13 -13 20 -10 7 -29 30 -43 50 -21 32 -27 35 -36 23 -6
-8 -14 -11 -18 -7 -4 4 -6 2 -4 -5 4 -14 -56 -70 -141 -133 -34 -24 -61 -48
-61 -53 0 -4 -4 -5 -10 -2 -5 3 -10 1 -10 -5 0 -6 -4 -9 -9 -5 -6 3 -14 -3
-20 -12 -6 -10 -11 -14 -11 -10 0 7 -12 -1 -47 -33 -9 -8 -20 -16 -25 -16 -4
-1 -13 -2 -19 -3 -5 0 -8 -5 -5 -10 8 -13 -47 -21 -61 -9 -9 8 -13 7 -13 -3
-1 -9 -4 -8 -11 4 -6 9 -14 15 -20 12 -5 -4 -9 -1 -9 5 0 6 -13 16 -30 21 -16
6 -30 15 -30 21 0 5 -4 7 -9 4 -5 -3 -11 1 -15 9 -3 8 -12 15 -21 15 -8 0 -15
5 -15 12 0 6 -2 9 -5 6 -3 -3 -24 12 -46 33 -23 22 -47 39 -55 39 -7 0 -16 9
-19 20 -4 11 -11 18 -16 15 -5 -4 -12 1 -15 9 -3 9 -10 13 -15 10 -5 -3 -9 2
-9 10 0 9 -6 16 -14 16 -7 0 -21 11 -30 25 -14 21 -20 24 -37 15 -11 -6 -17
-15 -14 -19 3 -5 -2 -12 -11 -15 -9 -4 -14 -9 -11 -12 8 -8 -16 -33 -25 -27
-7 4 -12 -11 -10 -28 1 -4 -12 -12 -28 -19 -16 -6 -31 -18 -34 -27 -3 -8 -11
-11 -16 -8 -6 4 -16 2 -23 -3 -7 -5 -20 -8 -29 -7 -10 2 -18 -1 -18 -6 0 -5
-16 0 -36 11 -19 11 -32 15 -28 8 6 -10 4 -10 -8 0 -9 7 -41 15 -70 18 -68 6
-101 37 -97 92 2 20 11 49 21 63 9 14 15 29 11 33 -3 3 -1 6 5 6 7 0 12 6 12
14 0 7 7 19 15 26 8 7 12 16 9 21 -3 5 2 9 11 9 9 0 13 5 10 10 -3 6 -2 10 4
10 6 0 21 10 33 23 13 13 30 21 37 19 8 -3 11 0 7 6 -3 6 7 16 24 24 33 14 49
46 30 58 -6 4 -12 11 -12 16 -2 22 -21 64 -30 64 -5 0 -6 5 -3 10 3 6 1 10 -4
10 -6 0 -11 3 -10 8 2 16 -14 52 -24 52 -6 0 -8 3 -4 6 3 3 -5 26 -19 51 -13
25 -24 52 -24 60 0 8 -4 11 -10 8 -6 -4 -10 7 -10 24 0 17 -5 31 -11 31 -5 0
-8 4 -5 9 4 5 0 12 -6 14 -10 4 -9 8 2 16 11 8 12 11 2 11 -7 0 -10 5 -7 10 3
6 2 10 -2 10 -5 0 -10 16 -11 35 -2 20 -7 47 -12 61 -17 43 -12 102 8 107 30
8 38 7 50 -5z m336 -63 c17 -8 47 -39 66 -67 19 -29 41 -59 48 -67 7 -7 11
-20 8 -28 -3 -8 -2 -11 3 -8 9 5 27 -32 23 -47 -1 -5 5 -8 14 -8 10 0 14 -6
11 -15 -4 -8 -2 -17 4 -20 5 -4 7 -11 4 -16 -4 -5 -2 -9 3 -9 12 0 31 -89 21
-96 -5 -3 -7 -9 -4 -14 7 -12 -6 -41 -16 -34 -5 3 -6 -2 -3 -10 3 -9 2 -16 -3
-16 -5 0 -9 -10 -10 -22 -1 -12 -9 -26 -18 -30 -8 -5 -13 -13 -10 -18 3 -5 -1
-17 -10 -27 -8 -10 -15 -22 -14 -26 0 -4 -7 -19 -16 -33 -9 -13 -13 -28 -10
-33 2 -5 -2 -12 -11 -15 -8 -3 -12 -2 -9 4 3 6 0 10 -7 10 -15 0 -48 35 -48
50 0 6 -5 10 -11 10 -5 0 -7 5 -3 12 4 6 3 8 -3 5 -5 -3 -17 3 -26 14 -9 10
-14 19 -10 19 3 0 -4 8 -15 19 -12 10 -22 25 -22 34 0 8 -7 17 -15 21 -8 3
-15 12 -15 21 0 8 -4 15 -10 15 -5 0 -10 7 -10 16 0 8 -4 13 -9 9 -6 -3 -8 4
-6 15 2 11 0 20 -5 20 -5 0 -14 10 -21 21 -9 17 -8 20 2 13 8 -4 4 5 -9 20
-12 16 -19 32 -16 37 3 5 2 9 -3 9 -4 0 -13 11 -20 25 -8 19 -8 23 0 18 7 -3
3 3 -7 15 -13 15 -15 22 -6 22 10 0 10 3 0 15 -20 24 -53 178 -41 191 11 12
233 -6 265 -21z m1236 6 c0 -11 -7 -46 -15 -77 -8 -31 -12 -60 -10 -64 3 -5 1
-10 -5 -12 -5 -1 -11 -15 -12 -30 -1 -16 -6 -28 -11 -28 -5 0 -7 -6 -4 -14 3
-8 -1 -17 -9 -20 -8 -3 -14 -16 -14 -29 0 -14 -7 -30 -15 -37 -8 -7 -12 -17
-9 -22 4 -6 0 -14 -7 -19 -8 -4 -14 -12 -15 -16 -1 -17 -28 -63 -36 -63 -4 0
-7 -4 -6 -9 3 -10 -18 -45 -44 -73 -10 -10 -15 -18 -10 -18 4 0 -1 -5 -11 -11
-9 -6 -15 -14 -12 -19 3 -5 -4 -12 -16 -15 -13 -4 -18 -12 -15 -21 3 -9 1 -12
-4 -9 -6 3 -19 -10 -31 -29 -12 -20 -23 -36 -25 -36 -2 0 -13 9 -24 20 -11 11
-16 20 -10 20 10 0 -27 70 -43 81 -5 3 -8 9 -8 13 3 20 0 26 -10 20 -7 -4 -7
1 1 16 8 15 8 20 1 16 -10 -6 -15 6 -12 27 0 4 -3 7 -8 7 -12 0 -32 60 -24 73
3 6 1 7 -6 3 -9 -6 -10 0 -5 21 4 15 11 30 16 31 4 2 6 8 2 13 -3 5 0 9 6 9 7
0 10 6 8 12 -3 7 5 21 16 31 12 10 14 16 6 12 -9 -4 -8 -1 3 8 10 8 19 24 20
35 0 11 4 19 7 17 3 -2 12 5 19 17 10 16 10 19 -1 13 -7 -3 -4 1 6 9 11 9 16
16 10 16 -5 0 -5 3 1 8 6 4 21 27 34 52 14 25 30 51 37 58 19 18 77 28 192 31
97 2 102 1 102 -18z m-648 -396 c5 -6 8 -6 8 2 0 8 9 9 29 3 16 -4 32 -6 35
-2 3 3 6 0 6 -7 0 -8 7 -11 15 -7 8 3 15 1 15 -5 0 -9 8 -20 37 -53 7 -8 9
-16 6 -20 -4 -3 -2 -6 3 -6 6 0 16 -16 23 -35 7 -19 17 -35 22 -35 6 0 7 -4 4
-10 -3 -5 -1 -10 4 -10 6 0 11 -7 11 -15 0 -8 5 -15 11 -15 5 0 8 -4 4 -9 -3
-5 2 -16 11 -25 8 -9 15 -24 15 -33 -1 -40 -5 -53 -14 -53 -5 0 -20 -11 -33
-25 -13 -14 -28 -25 -34 -25 -5 0 -10 -5 -10 -11 0 -5 -4 -7 -10 -4 -5 3 -10
-2 -10 -11 0 -10 -3 -15 -6 -12 -8 9 -42 -25 -36 -36 3 -5 0 -6 -6 -2 -6 4
-19 -2 -29 -14 -10 -11 -22 -20 -28 -20 -6 0 -22 -10 -35 -22 -14 -13 -27 -22
-30 -22 -13 3 -29 -9 -23 -19 4 -6 -2 -8 -15 -5 -12 4 -20 2 -17 -2 3 -5 -1
-10 -7 -13 -18 -5 -48 4 -48 15 0 5 -4 7 -9 3 -5 -3 -17 2 -25 11 -9 8 -16 13
-16 9 0 -5 -12 4 -45 33 -8 7 -15 10 -15 5 0 -4 -5 0 -11 10 -5 9 -14 17 -19
17 -6 0 -19 8 -31 18 -11 9 -33 27 -47 39 -15 13 -31 23 -35 23 -5 0 -5 5 -2
10 3 6 0 10 -7 10 -7 0 -30 16 -51 34 -32 30 -36 37 -28 59 5 14 7 28 3 33 -4
4 -2 5 3 1 6 -3 17 3 24 15 10 16 10 19 -1 13 -7 -3 -5 0 6 9 10 8 15 19 11
25 -3 6 1 11 9 11 9 0 16 9 16 21 0 11 5 17 10 14 6 -3 10 3 10 14 0 12 5 21
11 21 5 0 7 5 4 10 -3 6 -1 10 4 10 6 0 11 6 11 14 0 8 13 25 29 39 17 14 28
27 25 30 -3 3 24 5 60 4 36 -1 66 0 66 3 0 10 165 5 172 -5z"/>
</g>
</svg>
